HIERARCHY
ROOT Hips
{
	OFFSET 46.568001 -33.702217 99.142395
	CHANNELS 6 Xposition Yposition Zposition Xrotation Yrotation Zrotation
	JOINT spine
	{
		OFFSET 0.000000 -0.477356 8.301041
		CHANNELS 3 Xrotation Yrotation Zrotation
		JOINT spine1
		{
			OFFSET 0.000000 0.000000 10.456497
			CHANNELS 3 Xrotation Yrotation Zrotation
			JOINT spine2
			{
				OFFSET 0.000000 0.000000 10.019203
				CHANNELS 3 Xrotation Yrotation Zrotation
				JOINT Neck
				{
					OFFSET 0.000000 -1.226418 25.723503
					CHANNELS 3 Xrotation Yrotation Zrotation
					JOINT Head
					{
						OFFSET 0.000000 0.000000 7.771744
						CHANNELS 3 Xrotation Yrotation Zrotation
						End Site
						{
							OFFSET 0.000000 6.203938 18.811996
						}
					}
				}
				JOINT RightShoulder
				{
					OFFSET -4.218800 0.587437 10.820000
					CHANNELS 3 Xrotation Yrotation Zrotation
					JOINT RightArm
					{
						OFFSET 0.000000 -0.000004 14.191406
						CHANNELS 3 Xrotation Yrotation Zrotation
						JOINT RightArmRoll
						{
							OFFSET 0.000000 0.000000 7.164078
							CHANNELS 3 Xrotation Yrotation Zrotation
							JOINT RightForeArm
							{
								OFFSET 0.000000 -0.000004 20.866501
								CHANNELS 3 Xrotation Yrotation Zrotation
								JOINT RightForeArmRoll
								{
									OFFSET 0.000000 0.000000 8.039215
									CHANNELS 3 Xrotation Yrotation Zrotation
									JOINT RightHand
									{
										OFFSET 0.000000 -0.000004 16.132996
										CHANNELS 3 Xrotation Yrotation Zrotation
										End Site
										{
											OFFSET 0.000000 0.000000 0.100006
										}
									}
								}
							}
						}
					}
				}
				JOINT LeftShoulder
				{
					OFFSET 4.218800 0.587437 10.820000
					CHANNELS 3 Xrotation Yrotation Zrotation
					JOINT LeftArm
					{
						OFFSET 0.000000 -0.000004 14.191406
						CHANNELS 3 Xrotation Yrotation Zrotation
						JOINT LeftArmRoll
						{
							OFFSET 0.000000 0.000000 7.164078
							CHANNELS 3 Xrotation Yrotation Zrotation
							JOINT LeftForeArm
							{
								OFFSET 0.000000 -0.000004 20.866501
								CHANNELS 3 Xrotation Yrotation Zrotation
								JOINT LeftForeArmRoll
								{
									OFFSET 0.000000 0.000000 8.039215
									CHANNELS 3 Xrotation Yrotation Zrotation
									JOINT LeftHand
									{
										OFFSET 0.000000 -0.000004 16.132996
										CHANNELS 3 Xrotation Yrotation Zrotation
										End Site
										{
											OFFSET 0.000000 0.000000 0.100006
										}
									}
								}
							}
						}
					}
				}
			}
		}
	}
	JOINT RightUpLeg
	{
		OFFSET -7.357731 1.131821 -1.349213
		CHANNELS 3 Xrotation Yrotation Zrotation
		JOINT RightUpLegRoll
		{
			OFFSET 0.000000 -0.000004 18.916801
			CHANNELS 3 Xrotation Yrotation Zrotation
			JOINT RightLeg
			{
				OFFSET 0.000000 0.000004 -23.425598
				CHANNELS 3 Xrotation Yrotation Zrotation
				JOINT RightLegRoll
				{
					OFFSET 0.000000 -0.000004 23.502304
					CHANNELS 3 Xrotation Yrotation Zrotation
					JOINT RightFoot
					{
						OFFSET 0.000000 -0.000004 19.561714
						CHANNELS 3 Xrotation Yrotation Zrotation
						JOINT RightToeBase
						{
							OFFSET 0.000000 -0.000004 16.352600
							CHANNELS 3 Xrotation Yrotation Zrotation
							End Site
							{
								OFFSET 0.006931 0.912838 7.919434
							}
						}
					}
				}
			}
		}
	}
	JOINT LeftUpLeg
	{
		OFFSET 7.357731 1.131821 -1.349213
		CHANNELS 3 Xrotation Yrotation Zrotation
		JOINT LeftUpLegRoll
		{
			OFFSET 0.000000 -0.000004 18.916901
			CHANNELS 3 Xrotation Yrotation Zrotation
			JOINT LeftLeg
			{
				OFFSET 0.000000 -0.000004 23.425507
				CHANNELS 3 Xrotation Yrotation Zrotation
				JOINT LeftLegRoll
				{
					OFFSET 0.000000 -0.000004 23.719498
					CHANNELS 3 Xrotation Yrotation Zrotation
					JOINT LeftFoot
					{
						OFFSET 0.000000 -0.000004 19.344406
						CHANNELS 3 Xrotation Yrotation Zrotation
						JOINT LeftToeBase
						{
							OFFSET 0.000000 -0.000004 16.352600
							CHANNELS 3 Xrotation Yrotation Zrotation
							End Site
							{
								OFFSET -0.031063 0.912838 7.919434
							}
						}
					}
				}
			}
		}
	}
}
MOTION
Frames: 6
Frame Time: 0.041667
47.139999 -12.090822 77.130188 17.519847 2.684720 1.208559 2.640218 -0.663461 0.109214 9.285278 -1.318836 0.255220 10.930522 -1.315688 0.271001 -11.235109 -0.836400 0.553773 -10.968764 1.877881 0.757580 -9.759199 -58.838344 -11.515725 -47.918459 -128.245312 -52.392516 0.000001 0.000001 -0.000002 57.449472 -11.469599 3.666766 0.000001 -0.000017 -3.008050 -4.999849 -7.999296 0.000049 -7.996808 57.852194 9.360855 -55.508469 122.293062 63.578317 0.000003 0.000012 -0.000001 48.873449 10.328920 -3.493621 -0.000010 -0.000003 3.000002 -5.000078 7.999133 -0.000110 -70.863602 -168.698801 7.034632 179.999991 0.000006 -0.940006 106.528534 -5.976519 -5.942151 0.000001 -0.000002 1.494510 81.071361 7.598927 -1.632348 27.888868 -7.347097 0.314521 -74.043356 164.281540 -3.080170 -0.000002 -0.000005 -0.777580 -74.872616 3.006410 3.632667 0.000003 0.000007 -1.595041 77.227030 -6.536206 -2.597678 30.259425 7.314351 -0.816315 
47.148903 -12.166019 77.283600 17.484775 2.668896 1.209914 2.630724 -0.660441 0.109068 9.266272 -1.312986 0.254644 10.911587 -1.309842 0.270357 -11.202896 -0.832942 0.547497 -10.960665 1.894240 0.749975 -9.749447 -58.851266 -11.505014 -48.008689 -128.356371 -52.294927 0.000001 0.000001 -0.000001 56.912602 -11.548203 3.682760 0.000002 -0.000016 -3.008050 -4.999855 -7.999298 0.000049 -7.961699 57.884747 9.321507 -55.545038 122.344165 63.513150 0.000000 0.000012 -0.000001 48.488934 10.395929 -3.498357 -0.000011 -0.000003 3.000004 -5.000075 7.999133 -0.000108 -70.578565 -168.720112 7.004658 179.999991 0.000005 -0.937999 106.821891 -6.030441 -5.953529 0.000003 -0.000002 1.484909 81.010770 7.601395 -1.627804 27.904734 -7.347051 0.316593 -73.743428 164.310569 -3.083752 -0.000002 -0.000004 -0.776577 -74.593534 3.064743 3.660138 0.000004 0.000007 -1.583710 77.176459 -6.537494 -2.597046 30.286797 7.314007 -0.819414 
47.153709 -12.243319 77.457901 17.450809 2.653506 1.210623 2.621010 -0.657390 0.109269 9.246837 -1.306959 0.254772 10.892149 -1.303809 0.270414 -11.171685 -0.830338 0.540053 -10.952452 1.908401 0.741452 -9.742676 -58.869913 -11.498160 -48.102659 -128.462580 -52.205335 -0.000001 0.000001 -0.000002 56.383878 -11.625619 3.697246 -0.000000 -0.000017 -3.008049 -4.999852 -7.999296 0.000048 -7.923897 57.911917 9.278585 -55.574049 122.406019 63.428203 0.000002 0.000012 -0.000001 48.097939 10.461566 -3.499687 -0.000008 -0.000003 3.000002 -5.000072 7.999132 -0.000110 -70.294258 -168.743402 6.974166 179.999991 0.000005 -0.936005 107.117672 -6.083446 -5.961596 0.000002 -0.000002 1.475191 80.948492 7.603550 -1.621770 27.920393 -7.347013 0.318544 -73.444061 164.339501 -3.087247 -0.000001 -0.000006 -0.775510 -74.312492 3.123591 3.687496 0.000001 0.000007 -1.572259 77.124713 -6.538850 -2.596290 30.314582 7.313698 -0.822106 
47.160103 -12.314823 77.609482 17.418253 2.638394 1.210944 2.611031 -0.654236 0.109800 9.226868 -1.300627 0.255543 10.872118 -1.297484 0.271111 -11.140879 -0.830160 0.531219 -10.944137 1.922112 0.732177 -9.738071 -58.895130 -11.494289 -48.204559 -128.561536 -52.129319 0.000001 0.000001 -0.000002 55.862041 -11.702797 3.711532 0.000002 -0.000018 -3.008048 -4.999856 -7.999294 0.000050 -7.882800 57.933965 9.231372 -55.597911 122.480113 63.325293 -0.000000 0.000012 -0.000001 47.694487 10.526446 -3.497599 -0.000009 -0.000004 3.000001 -5.000072 7.999134 -0.000107 -70.010641 -168.767704 6.942353 179.999991 0.000006 -0.933994 107.415755 -6.136189 -5.970294 0.000001 -0.000001 1.465340 80.884343 7.605451 -1.614428 27.936153 -7.346972 0.320424 -73.145602 164.368038 -3.088959 -0.000002 -0.000004 -0.774370 -74.029333 3.183139 3.714737 0.000002 0.000007 -1.560651 77.071657 -6.540190 -2.595715 30.343266 7.313429 -0.824285 
47.168301 -12.394323 77.777794 17.386600 2.623521 1.210905 2.600808 -0.651001 0.110615 9.206415 -1.294059 0.256872 10.851690 -1.290894 0.272362 -11.110183 -0.831818 0.521220 -10.935718 1.935226 0.722217 -9.735492 -58.926030 -11.493133 -48.310860 -128.656107 -52.061833 -0.000000 0.000001 -0.000001 55.345784 -11.779318 3.725113 0.000001 -0.000018 -3.008049 -4.999856 -7.999295 0.000049 -7.838849 57.951450 9.180454 -55.616554 122.564985 63.205771 0.000001 0.000012 -0.000000 47.280871 10.590576 -3.492466 -0.000011 -0.000004 3.000002 -5.000072 7.999133 -0.000107 -69.727550 -168.792785 6.909031 179.999991 0.000005 -0.931004 107.716154 -6.188684 -5.978610 0.000003 -0.000002 1.455370 80.818487 7.607137 -1.605884 27.951921 -7.346935 0.322236 -72.847383 164.397039 -3.091335 -0.000005 -0.000005 -0.773165 -73.744132 3.243350 3.741891 0.000003 0.000007 -1.548909 77.017220 -6.541646 -2.594932 30.372871 7.313183 -0.826048 
47.163799 -12.449528 77.954193 17.355758 2.608870 1.210498 2.590377 -0.647705 0.111670 9.185547 -1.287294 0.258670 10.830854 -1.284118 0.274083 -11.079687 -0.834727 0.510276 -10.927188 1.947575 0.711636 -9.734643 -58.961451 -11.494314 -48.421779 -128.746416 -52.002520 -0.000000 0.000001 -0.000001 54.833438 -11.854942 3.737601 0.000002 -0.000017 -3.008050 -4.999853 -7.999296 0.000049 -7.792587 57.965363 9.126517 -55.632734 122.658122 63.074215 -0.000000 0.000010 -0.000000 46.859551 10.653877 -3.484622 -0.000007 -0.000003 3.000002 -5.000072 7.999132 -0.000109 -69.444842 -168.818944 6.874865 179.999991 0.000006 -0.928996 108.018868 -6.240586 -5.985582 0.000002 -0.000002 1.445311 80.751038 7.608568 -1.596255 27.967676 -7.346893 0.323975 -72.549634 164.425603 -3.092095 -0.000004 -0.000006 -0.771913 -73.457079 3.304043 3.768801 0.000002 0.000008 -1.537051 76.961602 -6.543089 -2.594213 30.402985 7.312984 -0.827424 
